<svg width="1337" height="779" viewBox="0 0 1337 779" fill="none" xmlns="http://www.w3.org/2000/svg">
	<path d="M0 1.00002C121 1.00002 121 1.00002 124 3.00002C124.495 4.48502 124.495 4.48502 125 6.00002C125.681 6.68064 126.361 7.36127 127.062 8.06252C127.702 8.70189 128.341 9.34127 129 10C129 10.66 129 11.32 129 12C129.66 12 130.32 12 131 12C132.508 13.6797 132.508 13.6797 134.125 15.875C134.664 16.5943 135.203 17.3136 135.758 18.0547C137 20 137 20 137 22C138.98 22.99 138.98 22.99 141 24C141 24.99 141 25.98 141 27C141.99 27.33 142.98 27.66 144 28C145.188 30.5625 145.188 30.5625 146 33C146.66 33 147.32 33 148 33C149.508 34.6797 149.508 34.6797 151.125 36.875C151.664 37.5943 152.203 38.3136 152.758 39.0547C154 41 154 41 154 43C155.32 43.66 156.64 44.32 158 45C158 45.99 158 46.98 158 48C158.99 48.33 159.98 48.66 161 49C162.973 51.1094 162.973 51.1094 165.062 53.75C165.755 54.6111 166.447 55.4722 167.16 56.3594C168.906 58.8653 169.897 61.175 171 64C171.928 64.4641 171.928 64.4641 172.875 64.9375C176.014 66.5069 177.152 69.0793 179 72C179.994 73.0058 180.995 74.0048 182 75C186.133 79.8606 190.212 84.7729 193.875 90C195.525 92.3289 196.993 94.039 199 96C204 101.408 204 101.408 204 105C205.32 105.66 206.64 106.32 208 107C208 107.66 208 108.32 208 109C208.99 109.33 209.98 109.66 211 110C211.333 111.333 211.667 112.667 212 114C212.99 114.33 213.98 114.66 215 115C215.333 116.333 215.667 117.667 216 119C216.99 119.33 217.98 119.66 219 120C220.605 121.777 220.605 121.777 222.188 123.938C222.717 124.648 223.247 125.358 223.793 126.09C225 128 225 128 225 130C225.99 130.33 226.98 130.66 228 131C228.333 132.333 228.667 133.667 229 135C229.99 135.33 230.98 135.66 232 136C232.333 137.333 232.667 138.667 233 140C233.99 140.33 234.98 140.66 236 141C237.973 143.145 237.973 143.145 240.062 145.813C240.755 146.685 241.447 147.558 242.16 148.457C243.716 150.608 244.837 152.633 246 155C247.644 156.689 249.314 158.353 251 160C252.533 161.719 254.025 163.467 255.508 165.23C256.487 166.392 257.482 167.541 258.492 168.676C262 172.669 262 172.669 262 176C262.557 176.186 263.114 176.371 263.688 176.563C266.563 178.35 267.912 180.45 269.754 183.246C271.031 185.043 272.417 186.47 274 188C279 193.408 279 193.408 279 197C280.32 197.66 281.64 198.32 283 199C283 199.66 283 200.32 283 201C283.66 201 284.32 201 285 201C285.248 201.578 285.495 202.155 285.75 202.75C286.94 205.135 286.94 205.135 289.125 207.125C291 209 291 209 291 211C291.99 211.33 292.98 211.66 294 212C295.605 213.777 295.605 213.777 297.188 215.938C297.717 216.648 298.247 217.358 298.793 218.09C300 220 300 220 300 222C300.99 222.33 301.98 222.66 303 223C303.33 223.99 303.66 224.98 304 226C304.681 226.681 305.361 227.361 306.062 228.063C306.702 228.702 307.341 229.341 308 230C308 230.66 308 231.32 308 232C308.66 232 309.32 232 310 232C311.564 233.693 313.053 235.456 314.5 237.25C315.294 238.225 316.088 239.199 316.906 240.203C318.599 242.465 319.79 244.481 321 247C321.701 247.701 322.402 248.403 323.125 249.125C325 251 325 251 325 253C325.66 253 326.32 253 327 253C328.235 254.402 329.463 255.814 330.625 257.277C331.535 258.417 332.472 259.535 333.438 260.629C337 264.667 337 264.667 337 268C337.557 268.186 338.114 268.371 338.688 268.563C341.563 270.35 342.912 272.45 344.754 275.246C345.964 277.058 345.964 277.058 347.625 278.594C349 280 349 280 349.438 282.063C349.825 284.212 349.825 284.212 352.062 285.25C352.702 285.498 353.341 285.745 354 286C354 286.99 354 287.98 354 289C355.32 289.66 356.64 290.32 358 291C358 291.66 358 292.32 358 293C358.66 293 359.32 293 360 293C360.248 293.578 360.495 294.155 360.75 294.75C361.94 297.135 361.94 297.135 364.125 299.125C366 301 366 301 366 303C366.66 303 367.32 303 368 303C369.727 304.898 369.727 304.898 371.625 307.375C372.257 308.187 372.888 308.999 373.539 309.836C375 312 375 312 375 314C375.66 314 376.32 314 377 314C377.248 314.578 377.495 315.155 377.75 315.75C378.94 318.135 378.94 318.135 381.125 320.125C383 322 383 322 383 324C383.66 324 384.32 324 385 324C386.508 325.68 386.508 325.68 388.125 327.875C388.664 328.594 389.203 329.314 389.758 330.055C391 332 391 332 391 334C391.639 334.268 392.279 334.536 392.938 334.813C395 336 395 336 396 339C396.681 339.681 397.361 340.361 398.062 341.063C398.702 341.702 399.341 342.341 400 343C400 343.66 400 344.32 400 345C400.66 345 401.32 345 402 345C403.508 346.68 403.508 346.68 405.125 348.875C405.664 349.594 406.203 350.314 406.758 351.055C408 353 408 353 408 355C409.32 355.66 410.64 356.32 412 357C412 357.99 412 358.98 412 360C412.557 360.186 413.114 360.371 413.688 360.563C416.563 362.35 417.912 364.45 419.754 367.246C420.964 369.058 420.964 369.058 422.625 370.594C424 372 424 372 424.438 374.063C424.825 376.212 424.825 376.212 427.062 377.25C427.702 377.498 428.341 377.745 429 378C429 378.99 429 379.98 429 381C429.99 381.33 430.98 381.66 432 382C433.389 383.621 434.713 385.297 436 387C436.914 388.065 437.83 389.128 438.75 390.188C441 393 441 393 441 395C441.66 395 442.32 395 443 395C444.621 397.082 444.621 397.082 446.438 399.813C448.453 402.829 450.366 405.508 453 408C458 413.535 458 413.535 458 416C458.66 416 459.32 416 460 416C461.508 417.68 461.508 417.68 463.125 419.875C463.664 420.594 464.203 421.314 464.758 422.055C466 424 466 424 466 426C467.32 426.66 468.64 427.32 470 428C470 428.99 470 429.98 470 431C470.99 431.33 471.98 431.66 473 432C474.188 434.563 474.188 434.563 475 437C475.66 437 476.32 437 477 437C478.508 438.68 478.508 438.68 480.125 440.875C480.664 441.594 481.203 442.314 481.758 443.055C483 445 483 445 483 447C484.32 447.66 485.64 448.32 487 449C487 449.99 487 450.98 487 452C487.99 452.33 488.98 452.66 490 453C491.719 454.926 491.719 454.926 493.5 457.313C494.382 458.482 494.382 458.482 495.281 459.676C495.848 460.443 496.416 461.21 497 462C497.567 462.715 498.134 463.431 498.719 464.168C500 466 500 466 500 468C501.32 468.66 502.64 469.32 504 470C504 470.99 504 471.98 504 473C504.99 473.33 505.98 473.66 507 474C508.39 475.62 509.716 477.295 511 479C512.478 480.793 513.957 482.584 515.438 484.375C518.02 487.521 520.541 490.665 522.875 494C524.525 496.329 525.993 498.039 528 500C533 505.408 533 505.408 533 509C534.32 509.66 535.64 510.32 537 511C537 511.66 537 512.32 537 513C537.66 513 538.32 513 539 513C539.268 513.804 539.536 514.609 539.812 515.438C540.4 516.706 540.4 516.706 541 518C541.99 518.33 542.98 518.66 544 519C544.688 521.062 544.688 521.062 545 523C545.66 523 546.32 523 547 523C547 478.12 547 433.24 547 387C547.66 387.33 548.32 387.66 549 388C550.688 388.111 552.381 388.159 554.073 388.177C555.131 388.19 556.19 388.203 557.28 388.216C558.429 388.223 559.578 388.231 560.762 388.238C561.941 388.246 563.12 388.254 564.335 388.263C566.836 388.277 569.337 388.287 571.838 388.295C575.655 388.312 579.47 388.356 583.287 388.4C585.716 388.411 588.145 388.419 590.574 388.426C592.282 388.452 592.282 388.452 594.025 388.479C600.571 388.461 604.709 387.976 610 384C611.466 381.916 611.466 381.916 612 380C612.66 380 613.32 380 614 380C614 376.04 614 372.08 614 368C613.34 368 612.68 368 612 368C611.814 367.051 611.629 366.103 611.438 365.125C610.266 361.616 610.266 361.616 606.375 360.625C604.704 360.316 604.704 360.316 603 360C603 359.34 603 358.68 603 358C585.18 358 567.36 358 549 358C549 358.66 549 359.32 549 360C548.34 360 547.68 360 547 360C547 326.01 547 292.02 547 257C552.94 256.67 558.88 256.34 565 256C570.433 254.642 572.315 251.568 575.312 247C576.836 242.568 576.278 239.645 574.438 235.375C572.179 231.1 569.823 230.756 565 228C559.06 227.67 553.12 227.34 547 227C547 152.42 547 77.84 547 1.00002C639.964 0.919357 639.964 0.919357 679.072 0.902363C688.021 0.898449 696.969 0.894408 705.917 0.890156C707.038 0.889629 708.16 0.889101 709.315 0.888558C727.309 0.879909 745.302 0.86417 763.296 0.845714C781.825 0.826871 800.354 0.815873 818.883 0.811843C829.264 0.809368 839.646 0.803469 850.027 0.78856C930.891 0.675851 930.891 0.675851 964.689 2.47173C965.435 2.50971 966.18 2.54768 966.948 2.58681C971.879 2.87937 971.879 2.87937 973 4.00002C975.493 4.34979 977.97 4.64352 980.473 4.90236C982.028 5.07225 983.583 5.24217 985.139 5.41213C987.592 5.67479 990.045 5.93563 992.498 6.19509C994.865 6.447 997.231 6.7057 999.598 6.96486C1000.32 7.0389 1001.04 7.11293 1001.78 7.18921C1006.67 7.72702 1011.25 8.74835 1016 10C1018.18 10.3634 1020.37 10.6988 1022.56 11C1027.19 11.6818 1031.52 12.6222 1036 14C1037.52 14.344 1039.04 14.6767 1040.56 15C1044.14 15.7729 1047.52 16.8412 1051 18C1052.43 18.3252 1053.87 18.6366 1055.31 18.9375C1059.31 19.7879 1063.11 20.9624 1066.96 22.3164C1068.95 22.9849 1070.95 23.5164 1073 24C1073 24.66 1073 25.32 1073 26C1073.61 26.0606 1074.23 26.1212 1074.86 26.1836C1075.67 26.2674 1076.48 26.3512 1077.31 26.4375C1078.51 26.5593 1078.51 26.5593 1079.74 26.6836C1082 27 1082 27 1085 28C1085 28.66 1085 29.32 1085 30C1085.83 30.1122 1086.66 30.2243 1087.51 30.3399C1091.42 31.0791 1095.08 32.2347 1098.81 33.5625C1099.91 33.9519 1099.91 33.9519 1101.03 34.3491C1112.08 38.3672 1122.51 43.7386 1133 49C1133 49.66 1133 50.32 1133 51C1133.95 51.1444 1134.9 51.2888 1135.88 51.4375C1139 52 1139 52 1141 53C1141 53.66 1141 54.32 1141 55C1142.3 55.1238 1142.3 55.1238 1143.62 55.25C1147.51 56.1136 1149.76 57.7269 1153 60C1154.65 60.7158 1156.31 61.4026 1158 62C1158 62.66 1158 63.32 1158 64C1159.3 64.3713 1159.3 64.3713 1160.62 64.75C1164.21 66.078 1166.96 67.6863 1170 70C1170 70.66 1170 71.32 1170 72C1170.9 72.2166 1170.9 72.2166 1171.81 72.4375C1173.56 72.8873 1175.29 73.4289 1177 74C1177 74.66 1177 75.32 1177 76C1178.65 76.66 1180.3 77.32 1182 78C1182 78.66 1182 79.32 1182 80C1182.56 80.1044 1183.12 80.2089 1183.7 80.3164C1186.42 81.1262 1188.39 82.3621 1190.75 83.9375C1191.55 84.4622 1192.35 84.9868 1193.17 85.5274C1193.78 86.0133 1194.38 86.4993 1195 87C1195 87.66 1195 88.32 1195 89C1195.66 89.1856 1196.32 89.3713 1197 89.5625C1200.58 91.2792 1203.07 93.5265 1206 96.1875C1207.78 97.8041 1209.61 99.3143 1211.5 100.813C1212.32 101.534 1213.15 102.256 1214 103C1214 103.66 1214 104.32 1214 105C1214.8 105.268 1215.61 105.536 1216.44 105.813C1217.28 106.204 1218.13 106.596 1219 107C1219.33 107.99 1219.66 108.98 1220 110C1222 111.209 1222 111.209 1224 112C1224 112.66 1224 113.32 1224 114C1225.32 114.66 1226.64 115.32 1228 116C1228 116.66 1228 117.32 1228 118C1228.84 118.309 1228.84 118.309 1229.69 118.625C1232.26 120.156 1233.73 122.011 1235.57 124.348C1237.64 126.743 1240.06 128.645 1242.55 130.605C1244 132 1244 132 1245 135C1246.5 136.449 1246.5 136.449 1248.31 137.813C1252.21 141.032 1254.84 144.529 1257 149.125C1257.99 151.192 1257.99 151.192 1260.12 153.125C1262 155 1262 155 1262 157C1262.66 157 1263.32 157 1264 157C1264.66 158.65 1265.32 160.3 1266 162C1266.66 162 1267.32 162 1268 162C1268.66 163.98 1269.32 165.96 1270 168C1270.66 168 1271.32 168 1272 168C1272.66 169.98 1273.32 171.96 1274 174C1274.66 174 1275.32 174 1276 174C1277.73 176.52 1277.73 176.52 1279.62 179.813C1280.26 180.891 1280.89 181.97 1281.54 183.082C1283 186 1283 186 1283 189C1283.66 189 1284.32 189 1285 189C1285.66 190.98 1286.32 192.96 1287 195C1287.66 195 1288.32 195 1289 195C1289.43 196.052 1289.87 197.104 1290.31 198.188C1291.31 200.541 1292.34 202.555 1293.69 204.75C1295 207 1295 207 1295 210C1295.66 210 1296.32 210 1297 210C1297.46 211.123 1297.92 212.246 1298.39 213.402C1299.01 214.914 1299.63 216.426 1300.25 217.938C1300.57 218.716 1300.89 219.494 1301.22 220.296C1303.15 225.002 1305.15 229.658 1307.37 234.238C1308 236 1308 236 1308 240C1308.66 240 1309.32 240 1310 240C1311.19 243.877 1312 246.916 1312 251C1312.66 251 1313.32 251 1314 251C1314.18 251.69 1314.36 252.379 1314.55 253.09C1315.8 257.743 1317.08 262.334 1318.69 266.875C1319.77 270.027 1320.33 272.628 1320 276C1320.66 276 1321.32 276 1322 276C1322.19 277.013 1322.39 278.026 1322.59 279.07C1322.85 280.422 1323.11 281.774 1323.38 283.125C1323.5 283.79 1323.63 284.455 1323.76 285.141C1324.36 288.202 1325.05 291.137 1326.04 294.098C1327.06 297.171 1327.59 300.111 1328.06 303.313C1328.33 306.971 1328.33 306.971 1330 310C1330.69 314.017 1331.1 318.077 1331.56 322.125C1331.7 323.303 1331.84 324.481 1331.98 325.695C1332.91 334.184 1333.38 342.467 1333 351C1333.66 351 1334.32 351 1335 351C1336.56 376.986 1336.47 403.012 1335 429C1334.34 429 1333.68 429 1333 429C1333.03 429.793 1333.07 430.586 1333.11 431.402C1333.31 440.167 1332.61 448.67 1331.56 457.375C1331.43 458.499 1331.29 459.623 1331.16 460.781C1330.14 468.865 1330.14 468.865 1329 470C1328.34 473.701 1327.76 477.406 1327.19 481.123C1326.49 485.609 1325.52 489.703 1324 494C1323.46 496.504 1323.01 499.012 1322.56 501.535C1321.96 504.178 1321.01 506.485 1320 509C1319.16 511.715 1318.4 514.452 1317.62 517.188C1315.97 522.941 1314.17 528.516 1311.8 534.02C1311 535.994 1310.47 537.926 1310 540C1309.34 540 1308.68 540 1308 540C1307.85 541.502 1307.85 541.502 1307.69 543.035C1307.1 547.166 1305.66 550.662 1303.94 554.438C1303.66 555.074 1303.37 555.71 1303.08 556.365C1302.4 557.914 1301.7 559.457 1301 561C1300.34 561 1299.68 561 1299 561C1298.89 561.705 1298.78 562.41 1298.66 563.137C1297.94 566.274 1296.81 568.901 1295.44 571.812C1294.98 572.788 1294.53 573.764 1294.06 574.77C1293.71 575.506 1293.36 576.242 1293 577C1292.34 577 1291.68 577 1291 577C1290.88 578.021 1290.88 578.021 1290.75 579.062C1289.77 582.884 1288.04 585.622 1286 589C1285.67 589.66 1285.34 590.32 1285 591C1284.34 591 1283.68 591 1283 591C1282.85 591.812 1282.85 591.812 1282.69 592.641C1281.82 595.606 1280.45 598.055 1278.94 600.75C1278.12 602.227 1278.12 602.227 1277.28 603.734C1276.86 604.482 1276.43 605.23 1276 606C1275.34 606 1274.68 606 1274 606C1273.34 607.98 1272.68 609.96 1272 612C1271.34 612 1270.68 612 1270 612C1269.71 612.969 1269.42 613.939 1269.12 614.938C1268 618 1268 618 1266 619C1265.67 619.66 1265.34 620.32 1265 621C1264 623 1264 623 1262 624C1260.87 626.017 1260.87 626.017 1260 628C1259.34 628 1258.68 628 1258 628C1257.76 628.712 1257.52 629.423 1257.27 630.156C1255.81 633.424 1253.98 635.757 1251.69 638.5C1250.93 639.418 1250.17 640.336 1249.39 641.281C1247.03 643.971 1244.54 646.476 1242 649C1241.44 649.763 1240.89 650.526 1240.31 651.312C1239.66 652.148 1239.66 652.148 1239 653C1238.34 653 1237.68 653 1237 653C1236.34 654.32 1235.68 655.64 1235 657C1234.34 657 1233.68 657 1233 657C1232.6 657.959 1232.6 657.959 1232.19 658.938C1231 661 1231 661 1228 662C1226.79 664 1226.79 664 1226 666C1225.34 666 1224.68 666 1224 666C1223.34 667.32 1222.68 668.64 1222 670C1221.34 670 1220.68 670 1220 670C1219.34 671.32 1218.68 672.64 1218 674C1217.01 674 1216.02 674 1215 674C1214.67 674.99 1214.34 675.98 1214 677C1208.53 682 1208.53 682 1206 682C1206 682.66 1206 683.32 1206 684C1204.1 685.727 1204.1 685.727 1201.62 687.625C1200.81 688.257 1200 688.888 1199.16 689.539C1197 691 1197 691 1195 691C1195 691.66 1195 692.32 1195 693C1193.28 694.215 1191.49 695.348 1189.69 696.438C1185.76 698.763 1185.76 698.763 1182.33 701.723C1181 703 1181 703 1178 703C1177.67 703.99 1177.34 704.98 1177 706C1174.57 707.605 1174.57 707.605 1171.56 709.188C1170.57 709.717 1169.59 710.247 1168.57 710.793C1166 712 1166 712 1164 712C1164 712.66 1164 713.32 1164 714C1163.29 714.387 1162.57 714.773 1161.84 715.172C1155.35 718.7 1155.35 718.7 1148.94 722.375C1146 724 1146 724 1144 724C1144 724.66 1144 725.32 1144 726C1141.09 727.257 1139.2 728 1136 728C1136 728.66 1136 729.32 1136 730C1133.09 731.257 1131.2 732 1128 732C1128 732.66 1128 733.32 1128 734C1127.36 734.254 1126.72 734.508 1126.06 734.77C1122.03 736.372 1118.02 737.976 1114.06 739.75C1111 741 1111 741 1108 741C1108 741.66 1108 742.32 1108 743C1104.38 744.316 1101.9 745 1098 745C1098 745.66 1098 746.32 1098 747C1097.04 747.273 1097.04 747.273 1096.06 747.551C1091.98 748.737 1088 749.916 1084.12 751.688C1081 753 1081 753 1077 753C1077 753.66 1077 754.32 1077 755C1076.15 755.182 1075.31 755.364 1074.44 755.551C1066.95 757.172 1066.95 757.172 1059.69 759.562C1052.08 762.528 1043.96 763.877 1035.98 765.5C1032.39 766.241 1028.89 767.032 1025.37 768.059C1021.79 769.059 1018.31 769.595 1014.62 770.062C1010.49 770.251 1010.49 770.251 1007 772C1005.09 772.287 1003.17 772.515 1001.25 772.719C1000.08 772.846 998.919 772.974 997.719 773.105C995.24 773.368 992.76 773.632 990.281 773.895C989.116 774.022 987.951 774.15 986.75 774.281C985.672 774.395 984.595 774.509 983.484 774.627C981.063 774.739 981.063 774.739 980 776C975.652 776.539 971.269 776.761 966.898 777.05C966.229 777.095 965.56 777.139 964.87 777.185C950.151 778.145 935.456 778.265 920.707 778.203C917.144 778.19 913.581 778.189 910.018 778.187C903.325 778.181 896.632 778.164 889.94 778.144C880.857 778.117 871.775 778.107 862.692 778.095C848.461 778.076 834.231 778.037 820 778C820 737.41 820 696.82 820 655C854.98 655 889.96 655 926 655C926 654.34 926 653.68 926 653C930.437 652.66 934.875 652.329 939.312 652C940.556 651.905 941.799 651.809 943.08 651.711C950.404 651.173 957.657 650.863 965 651C965 650.34 965 649.68 965 649C965.574 648.92 966.149 648.839 966.741 648.756C969.37 648.385 971.997 648.005 974.625 647.625C975.98 647.436 975.98 647.436 977.363 647.242C982.132 646.546 986.433 645.575 991 644C992.951 643.73 994.911 643.519 996.875 643.375C997.842 643.3 998.809 643.225 999.805 643.148C1000.53 643.099 1001.25 643.05 1002 643C1002 642.34 1002 641.68 1002 641C1002.94 640.758 1003.89 640.515 1004.86 640.266C1014.42 637.782 1024.01 635.274 1033.06 631.25C1036 630 1036 630 1039 630C1039 629.34 1039 628.68 1039 628C1041.27 626.993 1043.54 625.994 1045.81 625C1046.46 624.714 1047.1 624.428 1047.76 624.133C1050.68 622.863 1052.78 622 1056 622C1056 621.34 1056 620.68 1056 620C1057.02 619.457 1058.05 618.915 1059.11 618.355C1060.47 617.633 1061.83 616.91 1063.19 616.188C1063.86 615.831 1064.53 615.475 1065.23 615.107C1068.16 613.549 1071.03 611.979 1073.86 610.238C1076 609 1076 609 1078 609C1078 608.34 1078 607.68 1078 607C1079.5 605.887 1079.5 605.887 1081.56 604.688C1084.44 602.969 1087.18 601.184 1089.88 599.188C1093 597 1093 597 1095 597C1095 596.34 1095 595.68 1095 595C1098 593 1098 593 1101 593C1101.66 591.68 1102.32 590.36 1103 589C1103.66 589 1104.32 589 1105 589C1105.25 588.411 1105.5 587.822 1105.76 587.215C1107.16 584.707 1108.66 583.376 1110.88 581.562C1114 578.921 1116.51 576.262 1119 573C1121.62 570.188 1121.62 570.188 1124 568C1124.66 568 1125.32 568 1126 568C1126.66 566.68 1127.32 565.36 1128 564C1128.66 564 1129.32 564 1130 564C1130.27 563.237 1130.54 562.474 1130.81 561.688C1131.98 559.056 1132.97 557.943 1135 556C1135.35 555.299 1135.7 554.598 1136.06 553.875C1137 552 1137 552 1139 551C1140.13 548.983 1140.13 548.983 1141 547C1141.66 547 1142.32 547 1143 547C1143.25 546.134 1143.5 545.267 1143.75 544.375C1145.08 540.789 1146.69 538.037 1149 535C1149.66 535 1150.32 535 1151 535C1151.14 534.216 1151.29 533.433 1151.44 532.625C1152 530 1152 530 1153 528C1153.66 528 1154.32 528 1155 528C1155.17 527.455 1155.34 526.909 1155.52 526.348C1157.33 520.716 1159.5 515.361 1162 510C1162.66 510 1163.32 510 1164 510C1164.66 507.03 1165.32 504.06 1166 501C1166.66 501 1167.32 501 1168 501C1168.16 500.039 1168.16 500.039 1168.33 499.059C1169.33 493.621 1170.69 489.013 1173 484C1173.37 482.677 1173.73 481.348 1174 480C1174.66 480 1175.32 480 1176 480C1176.06 479.091 1176.06 479.091 1176.11 478.164C1176.46 473.772 1176.97 469.745 1178.38 465.563C1180.32 459.619 1181.11 453.509 1182 447.336C1182.91 441.095 1182.91 441.095 1184 440C1187.89 410.014 1187.78 379.387 1185.06 349.313C1184.95 348.066 1184.95 348.066 1184.84 346.795C1184.32 341.692 1183.3 336.96 1182 332C1181.59 329.777 1181.21 327.547 1180.88 325.313C1180.71 324.236 1180.54 323.16 1180.37 322.051C1180.04 319.326 1179.93 316.74 1180 314C1179.34 314 1178.68 314 1178 314C1175.7 304.59 1175.7 304.59 1176 300C1175.34 300 1174.68 300 1174 300C1172.81 296.123 1172 293.084 1172 289C1171.34 289 1170.68 289 1170 289C1168.81 285.123 1168 282.084 1168 278C1167.34 278 1166.68 278 1166 278C1165.54 276.938 1165.08 275.876 1164.61 274.781C1160.78 265.863 1160.78 265.863 1156.56 257.125C1155 254 1155 254 1155 252C1154.34 252 1153.68 252 1153 252C1151.54 249.353 1151 248.106 1151 245C1150.01 244.67 1149.02 244.34 1148 244C1147.67 242.35 1147.34 240.7 1147 239C1146.34 239 1145.68 239 1145 239C1144.6 237.546 1144.6 237.546 1144.19 236.063C1143.8 235.052 1143.4 234.041 1143 233C1142.01 232.67 1141.02 232.34 1140 232C1139.67 230.667 1139.33 229.333 1139 228C1138.01 227.67 1137.02 227.34 1136 227C1134.94 225.369 1133.95 223.697 1133 222C1132.44 221.278 1131.89 220.556 1131.31 219.813C1130 218 1130 218 1130 216C1128.68 215.34 1127.36 214.68 1126 214C1126 213.34 1126 212.68 1126 212C1125.34 212 1124.68 212 1124 212C1122.55 210.496 1122.55 210.496 1120.88 208.438C1117.71 204.682 1114.31 201.547 1110.5 198.445C1109.76 197.73 1109.76 197.73 1109 197C1109 196.34 1109 195.68 1109 195C1107.68 194.34 1106.36 193.68 1105 193C1105 192.34 1105 191.68 1105 191C1103.92 190.629 1103.92 190.629 1102.81 190.25C1099.72 188.877 1097.49 187.276 1095 185C1095 184.34 1095 183.68 1095 183C1093.92 182.629 1093.92 182.629 1092.81 182.25C1089.75 180.889 1087.59 179.11 1085 177C1084.01 176.67 1083.02 176.34 1082 176C1082 175.34 1082 174.68 1082 174C1080.98 173.629 1080.98 173.629 1079.94 173.25C1076.43 171.758 1073.28 169.932 1070 168C1070 167.34 1070 166.68 1070 166C1068.99 165.753 1067.98 165.505 1066.94 165.25C1062.87 164.103 1059.6 162.203 1056 160C1056 159.34 1056 158.68 1056 158C1055.31 157.892 1054.62 157.783 1053.91 157.672C1050.52 156.889 1047.57 155.648 1044.38 154.25C1043.76 153.983 1043.15 153.717 1042.51 153.442C1038.75 151.8 1035.03 150.071 1031.31 148.313C1026.03 145.877 1020.65 144.344 1015 143C1015 142.34 1015 141.68 1015 141C1013.76 140.856 1012.52 140.711 1011.25 140.563C1008.43 140.213 1005.73 139.796 1003 139C1003 138.34 1003 137.68 1003 137C1002.28 136.939 1001.55 136.879 1000.8 136.816C995.829 136.385 990.913 135.93 986 135C986 134.34 986 133.68 986 133C984.944 132.927 984.944 132.927 983.867 132.852C962.462 131.231 962.462 131.231 958 129C934.159 125.4 909.276 126.651 885.251 126.595C879.354 126.579 873.456 126.553 867.559 126.527C856.436 126.481 845.312 126.444 834.189 126.411C821.507 126.372 808.824 126.323 796.142 126.273C770.095 126.17 744.047 126.081 718 126C718 136.56 718 147.12 718 158C706.12 158 694.24 158 682 158C682 158.66 682 159.32 682 160C680.886 160.206 679.773 160.413 678.625 160.625C674.902 161.611 674.902 161.611 673.562 164.375C672.509 171.167 671.589 178.772 675 185C678.535 186.38 678.535 186.38 682 187C682 187.66 682 188.32 682 189C693.88 189 705.76 189 718 189C718 200.55 718 212.1 718 224C681.37 224 644.74 224 607 224C607 224.66 607 225.32 607 226C605.36 226.217 605.36 226.217 603.688 226.438C601.715 226.889 601.715 226.889 600 228C598.447 230.874 597.734 233.832 597 237C596.67 237.99 596.34 238.98 596 240C596.754 242.258 596.754 242.258 597.938 244.563C600 248.82 600 248.82 600 251C602.31 251.66 604.62 252.32 607 253C607 253.66 607 254.32 607 255C643.63 255 680.26 255 718 255C718 266.55 718 278.1 718 290C681.865 290.495 681.865 290.495 645 291C644.67 291.99 644.34 292.98 644 294C643.01 294 642.02 294 641 294C640.814 294.897 640.814 294.897 640.625 295.813C640 298 640 298 638 301C637.546 303.279 637.546 303.279 637.375 305.688C637.3 306.496 637.225 307.304 637.148 308.137C637.099 308.752 637.05 309.367 637 310C637.66 310 638.32 310 639 310C639.289 310.804 639.577 311.609 639.875 312.438C640.733 315.133 640.733 315.133 643 316C643 316.66 643 317.32 643 318C647.381 318.833 651.558 319.148 656.015 319.205C656.689 319.215 657.363 319.225 658.057 319.235C660.265 319.267 662.472 319.292 664.68 319.316C666.218 319.337 667.757 319.358 669.295 319.379C673.329 319.434 677.363 319.484 681.398 319.532C686.246 319.592 691.095 319.658 695.943 319.723C703.295 319.82 710.648 319.909 718 320C718 331.88 718 343.76 718 356C709.983 356.091 709.983 356.091 701.805 356.184C698.414 356.224 695.023 356.265 691.633 356.307C686.254 356.373 680.875 356.438 675.496 356.497C671.158 356.545 666.821 356.598 662.483 356.653C660.83 356.673 659.177 356.692 657.524 356.709C655.205 356.733 652.885 356.763 650.566 356.795C649.247 356.81 647.928 356.826 646.569 356.842C643.293 356.987 640.216 357.38 637 358C637 358.66 637 359.32 637 360C636.381 360.186 635.762 360.371 635.125 360.563C631.944 362.714 631.805 365.375 631 369C630.34 369 629.68 369 629 369C629 370.32 629 371.64 629 373C629.66 373 630.32 373 631 373C631.248 374.073 631.495 375.145 631.75 376.25C633.05 380.151 633.693 381.65 637 384C642.296 385.564 646.949 386.258 652.502 386.303C653.204 386.311 653.905 386.32 654.628 386.329C656.918 386.354 659.207 386.366 661.496 386.379C663.097 386.395 664.697 386.412 666.297 386.43C670.487 386.476 674.677 386.511 678.867 386.543C685.598 386.595 692.329 386.659 699.06 386.731C701.411 386.754 703.763 386.77 706.114 386.786C707.544 386.799 708.974 386.813 710.404 386.826C711.657 386.836 712.91 386.845 714.2 386.855C717 387 717 387 718 388C718.088 390.521 718.115 393.014 718.098 395.535C718.096 396.288 718.095 397.042 718.093 397.818C718.088 400.233 718.075 402.648 718.062 405.063C718.057 406.696 718.053 408.329 718.049 409.963C718.038 413.975 718.021 417.988 718 422C717.291 422.01 716.582 422.021 715.852 422.031C709.144 422.13 702.436 422.232 695.728 422.339C692.28 422.394 688.832 422.448 685.384 422.497C681.412 422.555 677.44 422.619 673.469 422.684C672.241 422.7 671.014 422.717 669.749 422.734C663.753 422.837 657.931 423.098 652 424C652 424.66 652 425.32 652 426C649.625 428.625 649.625 428.625 647 431C646.34 431 645.68 431 645 431C645 435.29 645 439.58 645 444C645.66 444 646.32 444 647 444C650 448.385 650 448.385 650 451C656.974 452.277 663.955 452.225 671.027 452.316C672.385 452.337 673.743 452.358 675.1 452.379C678.653 452.434 682.205 452.484 685.758 452.532C689.391 452.583 693.025 452.638 696.658 452.693C703.772 452.801 710.886 452.9 718 453C718 464.88 718 476.76 718 489C715.159 489.061 712.318 489.121 709.391 489.184C706.637 489.245 703.883 489.309 701.13 489.372C699.217 489.416 697.304 489.457 695.392 489.497C692.641 489.555 689.891 489.619 687.141 489.684C686.286 489.7 685.432 489.717 684.552 489.734C683.751 489.754 682.951 489.774 682.126 489.795C681.424 489.81 680.723 489.826 680 489.842C677.875 490.01 676.02 490.315 674 491C673.67 491.66 673.34 492.32 673 493C672.01 493 671.02 493 670 493C669.34 494.98 668.68 496.96 668 499C667.34 499 666.68 499 666 499C666 502.3 666 505.6 666 509C666.66 509 667.32 509 668 509C668.248 509.969 668.495 510.939 668.75 511.938C669.162 512.948 669.575 513.959 670 515C672.032 515.969 672.032 515.969 674 516C674 516.66 674 517.32 674 518C688.52 518.33 703.04 518.66 718 519C718 530.88 718 542.76 718 555C712.222 555.061 706.445 555.121 700.492 555.184C696.828 555.224 693.164 555.265 689.5 555.307C683.687 555.373 677.873 555.438 672.06 555.497C667.372 555.545 662.684 555.597 657.996 555.653C656.209 555.673 654.422 555.692 652.635 555.709C650.129 555.733 647.623 555.763 645.117 555.795C644.381 555.8 643.645 555.806 642.887 555.812C638.83 555.87 634.983 556.222 631 557C631 557.66 631 558.32 631 559C630.01 559.66 629.02 560.32 628 561C627.67 561.99 627.34 562.98 627 564C626.34 564 625.68 564 625 564C625 568.29 625 572.58 625 577C625.66 577 626.32 577 627 577C627.289 577.639 627.577 578.279 627.875 578.938C628.828 581.152 628.828 581.152 631 582C631 582.66 631 583.32 631 584C639.95 585.272 648.921 585.226 657.941 585.316C659.677 585.337 661.413 585.358 663.149 585.379C667.691 585.434 672.234 585.484 676.776 585.532C682.24 585.592 687.704 585.658 693.169 585.723C701.446 585.82 709.723 585.909 718 586C718 597.88 718 609.76 718 622C714.148 622.061 710.297 622.121 706.328 622.184C702.602 622.245 698.875 622.309 695.148 622.372C692.557 622.416 689.965 622.457 687.373 622.497C683.65 622.555 679.926 622.619 676.203 622.684C675.043 622.7 673.882 622.717 672.686 622.734C671.606 622.754 670.525 622.774 669.411 622.795C668.461 622.81 667.51 622.826 666.531 622.842C664.218 622.986 662.217 623.35 660 624C660 624.66 660 625.32 660 626C659.01 626.66 658.02 627.32 657 628C656.67 628.99 656.34 629.98 656 631C655.34 631 654.68 631 654 631C654 634.96 654 638.92 654 643C654.99 643.33 655.98 643.66 657 644C657.33 644.99 657.66 645.98 658 647C660 648.209 660 648.209 662 649C662 649.66 662 650.32 662 651C662.62 651.01 663.239 651.021 663.878 651.031C670.318 651.139 676.758 651.254 683.198 651.372C685.602 651.416 688.007 651.457 690.411 651.497C693.864 651.555 697.317 651.619 700.77 651.684C701.848 651.7 702.926 651.717 704.037 651.734C705.038 651.754 706.038 651.774 707.07 651.795C707.951 651.81 708.833 651.826 709.741 651.842C712 652 712 652 715 653C715 653.66 715 654.32 715 655C715.99 655 716.98 655 718 655C718 695.59 718 736.18 718 778C669.16 778 620.32 778 570 778C569.34 776.68 568.68 775.36 568 774C567.01 773.67 566.02 773.34 565 773C564.667 771.667 564.333 770.333 564 769C563.01 768.67 562.02 768.34 561 768C559.719 766.477 559.719 766.477 558.5 764.625C556.842 762.128 555.127 760.105 553 758C551.914 756.665 550.851 755.31 549.812 753.938C549.283 753.245 548.753 752.553 548.207 751.84C547 750 547 750 547 748C546.01 747.67 545.02 747.34 544 747C541.539 744.933 540.42 742.839 539 740C538.589 739.6 538.178 739.201 537.754 738.789C534.695 735.668 532.196 732.06 529.584 728.562C527.23 725.29 527.23 725.29 524 723C523.711 722.402 523.423 721.804 523.125 721.188C522.068 718.847 522.068 718.847 519.875 716.938C518 715 518 715 518 712C516.68 711.34 515.36 710.68 514 710C514 709.34 514 708.68 514 708C513.34 708 512.68 708 512 708C511.732 707.196 511.464 706.391 511.188 705.562C510.796 704.717 510.404 703.871 510 703C509.01 702.67 508.02 702.34 507 702C506.667 700.667 506.333 699.333 506 698C505.01 697.67 504.02 697.34 503 697C501.395 695.223 501.395 695.223 499.812 693.062C499.283 692.352 498.753 691.642 498.207 690.91C497 689 497 689 497 687C496.34 687 495.68 687 495 687C494.732 686.196 494.464 685.391 494.188 684.562C493.796 683.717 493.404 682.871 493 682C492.01 681.67 491.02 681.34 490 681C489.667 679.667 489.333 678.333 489 677C488.01 676.67 487.02 676.34 486 676C484.246 674.109 484.246 674.109 482.438 671.75C481.838 670.982 481.239 670.213 480.621 669.422C479 667 479 667 477.914 664.27C476.766 661.419 475.671 661.292 473 660C472.638 658.674 472.303 657.341 472 656C471.01 655.67 470.02 655.34 469 655C467.719 653.477 467.719 653.477 466.5 651.625C465.214 649.688 464.034 648.034 462.371 646.402C461 645 461 645 460.562 642.938C460.377 642.298 460.191 641.659 460 641C458.676 640.315 457.341 639.651 456 639C452 634.556 452 634.556 452 632C451.01 631.67 450.02 631.34 449 631C448.315 629.676 447.651 628.341 447 627C446.299 626.319 445.598 625.639 444.875 624.938C443 623 443 623 443 620C442.423 619.794 441.845 619.588 441.25 619.375C438.194 617.508 436.925 614.981 435 612C434.01 611.34 433.02 610.68 432 610C431.67 609.01 431.34 608.02 431 607C429.356 605.311 427.686 603.647 426 602C422 597.351 422 597.351 422 595C421.34 595 420.68 595 420 595C419.752 594.423 419.505 593.845 419.25 593.25C418.06 590.866 418.06 590.866 415.875 588.875C414.947 587.947 414.947 587.947 414 587C414 586.34 414 585.68 414 585C413.01 584.67 412.02 584.34 411 584C409.246 582.109 409.246 582.109 407.438 579.75C406.838 578.982 406.239 578.213 405.621 577.422C404 575 404 575 402.914 572.27C401.766 569.419 400.671 569.292 398 568C397.25 565.875 397.25 565.875 397 564C396.34 564 395.68 564 395 564C393.125 561.988 393.125 561.988 391 559.312C390.299 558.442 389.598 557.572 388.875 556.676C387.107 554.153 386.109 551.849 385 549C384.381 548.691 383.762 548.381 383.125 548.062C380.001 546.501 378.866 543.889 377 541C376.01 540.34 375.02 539.68 374 539C372.962 537.357 371.964 535.688 371 534C370.443 533.278 369.886 532.556 369.312 531.812C368 530 368 530 368 528C366.68 527.34 365.36 526.68 364 526C364 525.34 364 524.68 364 524C363.34 524 362.68 524 362 524C361.732 523.381 361.464 522.762 361.188 522.125C360.044 519.7 360.044 519.7 357 518C356.67 517.01 356.34 516.02 356 515C354.356 513.311 352.686 511.647 351 510C347 505.351 347 505.351 347 503C346.34 503 345.68 503 345 503C344.732 502.381 344.464 501.763 344.188 501.125C343.044 498.701 343.044 498.701 340 497C339.67 496.01 339.34 495.02 339 494C337.355 492.312 335.687 490.646 334 489C331 485.379 331 485.379 331 483C330.01 482.67 329.02 482.34 328 482C327.856 481.361 327.711 480.721 327.562 480.063C327.377 479.382 327.191 478.701 327 478C326.34 477.67 325.68 477.34 325 477C323 476 323 476 322.25 473.875C322.167 473.256 322.085 472.638 322 472C321.34 472 320.68 472 320 472C318.492 470.32 318.492 470.32 316.875 468.125C316.336 467.406 315.797 466.686 315.242 465.945C314 464 314 464 314 462C313.01 461.67 312.02 461.34 311 461C310.856 460.361 310.711 459.721 310.562 459.063C310.377 458.382 310.191 457.701 310 457C309.433 456.759 308.866 456.518 308.281 456.27C304.988 454.437 303.127 451.606 300.938 448.625C300.504 448.048 300.07 447.47 299.623 446.875C298.408 445.255 297.204 443.628 296 442C295.403 441.245 294.806 440.489 294.191 439.711C293 438 293 438 293 436C292.01 435.67 291.02 435.34 290 435C288.719 433.477 288.719 433.477 287.5 431.625C285.839 429.124 284.124 427.114 282 425C279.69 422.221 277.425 419.407 275.156 416.594C273.139 414.086 273.139 414.086 271.281 412.281C269.701 410.702 268.995 408.99 268 407C267.003 405.997 266.002 404.998 265 404C263.419 402.162 261.858 400.306 260.312 398.438C259.504 397.467 258.696 396.496 257.863 395.496C256 393 256 393 256 391C255.01 390.67 254.02 390.34 253 390C252.67 389.01 252.34 388.02 252 387C250.879 385.879 249.754 384.761 248.609 383.664C239 373.728 239 373.728 239 370C238.01 369.67 237.02 369.34 236 369C235.667 367.667 235.333 366.333 235 365C234.01 364.67 233.02 364.34 232 364C230.422 362.25 230.422 362.25 228.75 360C228.145 359.194 227.541 358.389 226.918 357.559C226.285 356.714 225.652 355.87 225 355C223.099 352.612 221.195 350.228 219.285 347.848C218 346 218 346 218 344C217.01 343.67 216.02 343.34 215 343C213.719 341.477 213.719 341.477 212.5 339.625C211.306 337.826 210.205 336.201 208.66 334.688C205.631 331.608 203.166 328.02 200.584 324.563C198.23 321.29 198.23 321.29 195 319C194.333 317.667 193.667 316.333 193 315C192.227 314.258 192.227 314.258 191.438 313.5C190 312 190 312 189.562 309.938C189.175 307.788 189.175 307.788 186.938 306.75C185.978 306.379 185.978 306.379 185 306C185 305.34 185 304.68 185 304C184.34 304 183.68 304 183 304C182.732 303.196 182.464 302.391 182.188 301.563C181.796 300.717 181.404 299.871 181 299C180.01 298.67 179.02 298.34 178 298C177.67 297.01 177.34 296.02 177 295C175.356 293.311 173.686 291.647 172 290C168 285.351 168 285.351 168 283C167.34 283 166.68 283 166 283C165.732 282.196 165.464 281.391 165.188 280.563C164.796 279.717 164.404 278.871 164 278C163.01 277.67 162.02 277.34 161 277C160.667 275.667 160.333 274.333 160 273C159.01 272.67 158.02 272.34 157 272C155.246 270.109 155.246 270.109 153.438 267.75C152.838 266.982 152.239 266.213 151.621 265.422C150.008 263.012 148.971 260.724 148 258C147.34 258 146.68 258 146 258C145.67 429.6 145.34 601.2 145 778C97.15 778 49.3 778 0 778C0 521.59 0 265.18 0 1.00002ZM602 162C602 162.66 602 163.32 602 164C601.443 164.062 600.886 164.124 600.312 164.188C596.957 165.366 595.259 167.302 593 170C593 171.32 593 172.64 593 174C592.34 174 591.68 174 591 174C591 175.98 591 177.96 591 180C591.66 180 592.32 180 593 180C593.062 180.722 593.124 181.444 593.188 182.188C594.302 186.047 595.818 187.563 599 190C601.734 190.694 604.158 190.856 607 191C607 191.66 607 192.32 607 193C614.92 193 622.84 193 631 193C631 192.34 631 191.68 631 191C632.918 190.783 632.918 190.783 634.875 190.563C637.257 190.294 638.845 190.078 641 189C641 188.34 641 187.68 641 187C641.99 186.67 642.98 186.34 644 186C644.33 184.02 644.66 182.04 645 180C645.66 180 646.32 180 647 180C647 178.02 647 176.04 647 174C646.34 174 645.68 174 645 174C644.938 173.278 644.876 172.556 644.812 171.813C643.442 167.068 639.995 164.663 636 162C632.447 161.064 629.101 160.872 625.438 160.867C624.393 160.866 623.349 160.865 622.273 160.863C620.653 160.869 620.653 160.869 619 160.875C617.92 160.871 616.84 160.867 615.727 160.863C614.16 160.865 614.16 160.865 612.562 160.867C611.615 160.868 610.668 160.869 609.691 160.871C607.032 160.998 604.592 161.408 602 162ZM583 491C583 491.66 583 492.32 583 493C581.793 493.402 581.793 493.402 580.562 493.813C579.717 494.204 578.871 494.596 578 495C577.67 495.99 577.34 496.98 577 498C576.01 498.495 576.01 498.495 575 499C574.091 503.299 573.841 506.749 575 511C575.66 511 576.32 511 577 511C577.155 511.959 577.155 511.959 577.312 512.938C577.539 513.618 577.766 514.299 578 515C578.99 515.33 579.98 515.66 581 516C581 516.66 581 517.32 581 518C584.754 519.728 587.691 520.252 591.812 520.259C592.957 520.265 594.102 520.271 595.281 520.278C596.508 520.274 597.736 520.27 599 520.266C600.903 520.268 600.903 520.268 602.844 520.271C605.524 520.273 608.203 520.27 610.883 520.261C614.309 520.249 617.735 520.256 621.162 520.268C624.441 520.277 627.721 520.271 631 520.266C632.841 520.272 632.841 520.272 634.719 520.278C635.863 520.272 637.008 520.265 638.188 520.259C639.192 520.257 640.196 520.256 641.23 520.254C646.05 519.812 648.412 518.643 651.688 515.062C655.313 510.262 656.699 508.09 656 502C654.684 499.048 653.202 496.376 651 494C648.913 493.232 648.913 493.232 647 493C647 492.34 647 491.68 647 491C643.865 489.955 641.673 489.873 638.383 489.871C637.232 489.867 636.08 489.864 634.894 489.861C633.028 489.864 633.028 489.864 631.125 489.867C629.849 489.866 628.573 489.865 627.258 489.864C624.558 489.864 621.858 489.865 619.158 489.87C615.698 489.875 612.238 489.872 608.778 489.866C605.477 489.862 602.176 489.865 598.875 489.867C597.631 489.865 596.387 489.863 595.106 489.861C593.955 489.864 592.803 489.867 591.617 489.871C590.603 489.871 589.588 489.872 588.542 489.873C585.876 489.892 585.876 489.892 583 491ZM562 562C559.474 567.148 559.445 572.519 561 578C563.152 581.775 565.917 584.459 570 586C573.309 586.308 573.309 586.308 576.996 586.266C578.002 586.268 578.002 586.268 579.028 586.271C580.443 586.273 581.857 586.269 583.272 586.261C585.427 586.25 587.581 586.261 589.736 586.273C591.115 586.272 592.493 586.27 593.871 586.266C595.118 586.263 596.365 586.261 597.65 586.259C601.568 585.956 604.557 585.222 607.582 582.66C611.079 578.119 611.71 574.278 611.414 568.586C610.592 563.449 608.26 560.971 604.246 557.879C598.528 554.726 591.973 555.343 585.625 555.375C584.349 555.343 583.073 555.311 581.758 555.277C573.741 555.269 567.836 556.161 562 562ZM526.75 625.75C523.287 630.203 522.84 633.888 523.375 639.375C523.571 640.918 523.775 642.461 524 644C524.99 644.33 525.98 644.66 527 645C528.188 647.062 528.188 647.062 529 649C529.66 649 530.32 649 531 649C531 649.66 531 650.32 531 651C534.011 652.506 537.113 652.139 540.416 652.129C541.18 652.131 541.944 652.133 542.732 652.135C545.267 652.139 547.801 652.136 550.336 652.133C552.095 652.133 553.853 652.134 555.612 652.136C559.303 652.137 562.993 652.135 566.684 652.13C571.414 652.125 576.144 652.128 580.874 652.134C584.508 652.138 588.142 652.136 591.776 652.134C593.52 652.133 595.264 652.134 597.008 652.136C599.447 652.139 601.886 652.135 604.326 652.129C605.047 652.131 605.768 652.133 606.511 652.135C609.818 652.122 612.838 652.023 616 651C616 650.34 616 649.68 616 649C616.598 648.752 617.196 648.505 617.812 648.25C620.396 646.773 621.441 645.53 623 643C623.863 637.854 623.597 633.314 621.438 628.562C617.509 624.432 613.87 622.248 608.275 621.505C606.928 621.488 605.58 621.492 604.232 621.514C603.49 621.51 602.747 621.507 601.982 621.503C599.549 621.495 597.117 621.517 594.684 621.539C592.982 621.541 591.28 621.542 589.578 621.542C586.019 621.545 582.462 621.561 578.904 621.588C574.352 621.622 569.801 621.63 565.249 621.628C561.737 621.629 558.226 621.64 554.715 621.654C553.037 621.661 551.359 621.665 549.68 621.666C547.333 621.671 544.986 621.688 542.638 621.709C541.951 621.709 541.264 621.708 540.555 621.707C535.321 621.776 530.938 622.492 526.75 625.75Z" fill="white" />
</svg>
