<svg version="1.1" xmlns="http://www.w3.org/2000/svg" width="50" height="50" viewBox="0 0 500 525">
<path d="M0 0 C1.73157214 -0.00693233 3.46313543 -0.01647423 5.19468063 -0.02836347 C9.9028872 -0.0531808 14.61035478 -0.04113737 19.31856239 -0.02244616 C24.41546183 -0.00878148 29.5122407 -0.02986865 34.6091156 -0.04632568 C44.5738491 -0.0729157 54.53831045 -0.06728311 64.50305433 -0.04984984 C72.60560432 -0.03626478 80.70807839 -0.03447681 88.81063652 -0.04099274 C89.96658999 -0.04191214 91.12254345 -0.04283153 92.31352581 -0.04377879 C94.66227105 -0.04569726 97.01101627 -0.04764254 99.35976147 -0.04961434 C121.35039306 -0.06669712 143.34087423 -0.04709288 165.33148115 -0.01481214 C184.17678677 0.01199556 203.02187061 0.00733217 221.86717224 -0.02032471 C243.78403541 -0.05247455 265.70076699 -0.06505315 287.61765045 -0.04665112 C289.95714595 -0.04473995 292.29664147 -0.04285372 294.63613701 -0.04099274 C295.78703303 -0.04006708 296.93792904 -0.03914143 298.1237007 -0.03818773 C306.21160467 -0.03301966 314.29942477 -0.04172445 322.38731575 -0.05587006 C332.25075802 -0.07274292 342.11391401 -0.06805019 351.97732372 -0.03618559 C357.00427062 -0.02047776 362.03074117 -0.01413713 367.05768394 -0.03408051 C371.66881161 -0.05209682 376.27902608 -0.04191211 380.8900721 -0.01021519 C382.5486442 -0.00357068 384.20729514 -0.00679138 385.86581559 -0.02146992 C398.67023149 -0.12600817 411.48100541 1.70368281 421.71897888 10.13690186 C422.89518088 11.3156946 424.0420627 12.52453366 425.15647888 13.76190186 C425.76749451 14.40256592 426.37851013 15.04322998 427.00804138 15.70330811 C438.55820611 28.26104039 440.60967818 40.15770825 440.54415894 56.75932312 C440.54833594 58.48428413 440.55381546 60.20924238 440.56047875 61.93419558 C440.57490387 66.65627831 440.57069781 71.37818607 440.56331193 76.10027826 C440.55857534 81.19989994 440.57109443 86.29948405 440.58132935 91.39909363 C440.59851269 101.38242331 440.59935836 111.36569004 440.59411644 121.34903067 C440.59007286 129.46417007 440.59152054 137.57929088 440.5968647 145.6944294 C440.59761312 146.84999954 440.59836154 148.00556969 440.59913265 149.19615712 C440.60066414 151.54378474 440.60220249 153.89141235 440.60374761 156.23903996 C440.61747083 178.24708793 440.61203608 200.25510033 440.6005624 222.26314748 C440.59062894 242.39187926 440.60357299 262.52051913 440.62749659 282.64923673 C440.65188549 303.32545289 440.66149605 324.00162625 440.65484387 344.6778565 C440.65135135 356.28280756 440.65358596 367.88768792 440.67109489 379.4926281 C440.68581416 389.37095682 440.68645577 399.24916506 440.66902398 409.12749141 C440.66050966 414.16583708 440.65837515 419.20396748 440.67367554 424.24230194 C440.68751937 428.85819106 440.6827633 433.47368042 440.6634363 438.08954639 C440.65967509 439.75564904 440.66260176 441.42178369 440.67304795 443.08785783 C440.76709875 459.24205498 436.73286147 471.93424796 425.59397888 484.01190186 C416.838697 492.42332071 404.89264585 497.00324685 392.80339622 497.02196407 C392.09347387 497.02576974 391.38355151 497.02957542 390.65211636 497.03349641 C388.27909587 497.04378267 385.90631591 497.03991155 383.53327942 497.03605652 C381.81233412 497.04051054 380.09139087 497.04582512 378.37045062 497.05192524 C373.64549036 497.06609608 368.92059591 497.06776871 364.19561744 497.06732833 C359.09795253 497.06897735 354.00031468 497.08204549 348.90266418 497.09352112 C337.75793353 497.11636388 326.61322194 497.12429098 315.46847105 497.12934756 C308.50779786 497.13260547 301.54713018 497.13912853 294.58646011 497.14634895 C275.30891536 497.16591407 256.03137574 497.18231875 236.75382042 497.18522549 C235.52037507 497.18541306 234.28692972 497.18560063 233.01610724 497.18579388 C230.51568198 497.18616013 228.01525673 497.18652383 225.51483147 497.18688499 C224.27364054 497.1870678 223.03244962 497.18725061 221.75364685 497.18743896 C219.88958421 497.18770979 219.88958421 497.18770979 217.98786373 497.18798608 C197.85381317 497.19152735 177.71986959 497.21854718 157.58585612 497.25593685 C136.90746909 497.2940297 116.22913513 497.31338304 95.55071223 497.313685 C83.94339084 497.31426935 72.33619706 497.32274728 60.72890854 497.35168266 C50.84469894 497.37620956 40.96066349 497.38347052 31.07643168 497.36843514 C26.03578179 497.36127164 20.99547573 497.36209975 15.9548645 497.38484573 C11.33437 497.40549567 6.71448234 497.40277934 2.09399398 497.38197089 C0.42843327 497.37848748 -1.23717176 497.38333698 -2.90267439 497.39767533 C-17.52013077 497.51533972 -31.17253428 494.14191387 -42.51148987 484.31658936 C-46.00945985 480.58417099 -48.51977983 476.15750495 -51.09352112 471.76190186 C-51.60616516 470.88985107 -51.60616516 470.88985107 -52.12916565 470.00018311 C-55.74586354 463.5849143 -57.09259955 457.73476384 -57.10079002 450.40602589 C-57.1042961 449.69580393 -57.10780217 448.98558198 -57.11141449 448.25383815 C-57.12070023 445.87980425 -57.11581254 443.50601718 -57.11094666 441.13197327 C-57.11468435 439.41031561 -57.11928635 437.68865966 -57.1246773 435.96700639 C-57.13690812 431.24011186 -57.13664673 426.5132881 -57.13428855 421.78638136 C-57.1338804 416.68669331 -57.14491939 411.58702795 -57.15440369 406.48735046 C-57.17101543 396.49727182 -57.17651332 386.50721677 -57.17762844 376.51712546 C-57.17857889 368.39572842 -57.18268904 360.27433915 -57.18902969 352.15294456 C-57.20664306 329.12399874 -57.21586849 306.09507155 -57.21436875 283.06611893 C-57.21428883 281.82466529 -57.21420892 280.58321164 -57.21412659 279.30413818 C-57.21404483 278.06116744 -57.21396306 276.81819671 -57.21387883 275.53756019 C-57.21306604 255.39638341 -57.23220165 235.25528144 -57.26040332 215.1141263 C-57.28913641 194.43009443 -57.30294336 173.74609904 -57.30121577 153.06204671 C-57.30055198 141.45086616 -57.30603916 129.83976402 -57.32757187 118.22860146 C-57.34578929 108.34181725 -57.35012639 98.455147 -57.33655302 88.56835327 C-57.33002608 83.52584972 -57.32989638 78.48356472 -57.34725952 73.441082 C-57.36300735 68.82009369 -57.36010908 64.19949692 -57.34269126 59.57851806 C-57.33962512 57.91163208 -57.34323911 56.24471675 -57.35441141 54.5778654 C-57.43326235 41.97347734 -55.97499857 30.74282354 -48.09352112 20.44940186 C-47.65016418 19.85965576 -47.20680725 19.26990967 -46.75001526 18.66229248 C-45.47538417 17.00410141 -44.17143186 15.37758853 -42.84352112 13.76190186 C-42.23895081 13.02584717 -41.63438049 12.28979248 -41.01148987 11.53143311 C-30.60518017 0.89021799 -13.93144485 -0.12348079 0 0 Z " fill="#3178C6" transform="translate(58.84352111816406,1.23809814453125)"/>
<path d="M0 0 C1.0740509 0.00190338 1.0740509 0.00190338 2.1697998 0.00384521 C20.39017657 0.0655487 34.29713137 2.74538941 52.4375 8.1875 C52.4375 23.0375 52.4375 37.8875 52.4375 53.1875 C49.01568922 51.81877569 45.8010901 50.40963758 42.5 48.8125 C36.01525828 45.84178724 29.3287843 43.97066848 22.4375 42.1875 C21.2309375 41.8265625 20.024375 41.465625 18.78125 41.09375 C13.28616664 39.73564453 7.75470439 39.8581345 2.125 39.875 C1.06087891 39.85888672 -0.00324219 39.84277344 -1.09960938 39.82617188 C-7.56302651 39.82222836 -13.14038491 40.59159874 -19.30932617 42.54223633 C-21.5625 43.1875 -21.5625 43.1875 -24.5625 43.1875 C-24.5625 43.8475 -24.5625 44.5075 -24.5625 45.1875 C-25.47 45.744375 -26.3775 46.30125 -27.3125 46.875 C-31.08042894 49.55602636 -33.01064151 51.84935014 -34.5625 56.1875 C-35.39986265 61.5047528 -34.24066842 66.15299475 -32.5625 71.1875 C-31.9025 71.1875 -31.2425 71.1875 -30.5625 71.1875 C-29.5413076 72.3605315 -28.57068725 73.57778853 -27.625 74.8125 C-22.84179955 80.46810807 -16.70028081 83.60154943 -9.8515625 86.2265625 C-7.5625 87.1875 -7.5625 87.1875 -5.5625 89.1875 C-4.20246868 89.61360423 -2.82315166 89.97900418 -1.4375 90.3125 C5.67134449 92.33918938 12.04549749 95.79162616 18.56445312 99.21044922 C20.18465914 100.05560882 21.81780929 100.87586668 23.453125 101.69140625 C40.5139689 110.44631299 53.89956087 122.95420362 60.4375 141.1875 C62.15432106 146.81894923 61.70466204 152.7945379 61.75 158.625 C61.77900391 159.83349609 61.80800781 161.04199219 61.83789062 162.28710938 C61.89809916 170.93398182 60.40230028 178.08769982 57.4375 186.1875 C57.15745117 187.01773682 56.87740234 187.84797363 56.58886719 188.70336914 C52.31285528 200.96253733 40.37696699 209.65251492 29.296875 215.2734375 C26.5146852 216.54763367 24.52425 217.1875 21.4375 217.1875 C21.4375 217.8475 21.4375 218.5075 21.4375 219.1875 C18.4172577 219.83620339 15.39636021 220.48154156 12.375 221.125 C11.10366211 221.39860352 11.10366211 221.39860352 9.80664062 221.67773438 C8.97197266 221.85498047 8.13730469 222.03222656 7.27734375 222.21484375 C6.51800537 222.37718506 5.75866699 222.53952637 4.97631836 222.70678711 C-1.15023969 223.86682104 -7.03502364 224.34648546 -13.25 224.35546875 C-14.07016602 224.35879715 -14.89033203 224.36212555 -15.73535156 224.36555481 C-17.46662846 224.37059547 -19.19791499 224.37296402 -20.92919922 224.37280273 C-23.52718968 224.37497054 -26.12474175 224.39310506 -28.72265625 224.41210938 C-48.68062281 224.47955748 -66.22806073 221.18188997 -84.5625 213.1875 C-85.5625 212.1875 -85.5625 212.1875 -85.68275452 210.35887146 C-85.68053391 209.56167191 -85.67831329 208.76447235 -85.67602539 207.94311523 C-85.67594986 207.04225693 -85.67587433 206.14139862 -85.67579651 205.21324158 C-85.67063522 204.23408279 -85.66547394 203.25492401 -85.66015625 202.24609375 C-85.6587413 201.24868668 -85.65732635 200.2512796 -85.65586853 199.22364807 C-85.65025114 196.02406876 -85.63769571 192.82455831 -85.625 189.625 C-85.61998724 187.46158955 -85.61542395 185.29817801 -85.61132812 183.13476562 C-85.60027607 177.81898675 -85.58352104 172.50324829 -85.5625 167.1875 C-84.5725 167.1875 -83.5825 167.1875 -82.5625 167.1875 C-82.5625 167.8475 -82.5625 168.5075 -82.5625 169.1875 C-81.9025 169.42726563 -81.2425 169.66703125 -80.5625 169.9140625 C-77.4897595 171.21837683 -74.65301277 172.74499678 -71.73730469 174.36132812 C-57.74370695 182.09016747 -45.07208574 185.37466399 -29.0625 185.5 C-27.85851562 185.52900391 -26.65453125 185.55800781 -25.4140625 185.58789062 C-14.27950369 185.66571281 -3.02359067 183.92849785 5.4375 176.1875 C9.20431871 171.78911887 10.14818811 167.40497262 9.87890625 161.671875 C8.18947578 152.1632221 -0.52893459 146.22264593 -7.9375 141 C-11.77937519 138.51330681 -15.66243414 136.78684203 -19.94140625 135.19140625 C-23.71489621 133.74612023 -27.35515601 132.03551479 -31.01953125 130.3359375 C-32.74088111 129.55855369 -34.48198247 128.82373394 -36.23828125 128.12890625 C-38.5625 127.1875 -38.5625 127.1875 -40.9375 125.75 C-43.55821369 124.09155878 -43.55821369 124.09155878 -46.625 123 C-57.73631926 118.36624022 -68.37846993 109.8410404 -75.5625 100.1875 C-75.5625 99.5275 -75.5625 98.8675 -75.5625 98.1875 C-76.2225 98.1875 -76.8825 98.1875 -77.5625 98.1875 C-81.16088173 92.42724466 -83.40516707 86.98563787 -84.984375 80.375 C-85.35607433 78.22627237 -85.35607433 78.22627237 -86.5625 77.1875 C-86.66185664 75.64709722 -86.69330092 74.10219617 -86.6953125 72.55859375 C-86.69660156 71.60533203 -86.69789063 70.65207031 -86.69921875 69.66992188 C-86.69535156 68.66509766 -86.69148438 67.66027344 -86.6875 66.625 C-86.69136719 65.64724609 -86.69523437 64.66949219 -86.69921875 63.66210938 C-86.67902971 48.59099066 -86.67902971 48.59099066 -82.5625 42.1875 C-82.00970904 40.64978707 -81.46951317 39.10752455 -80.9375 37.5625 C-75.38201406 23.50670287 -61.97608205 13.37660093 -48.5625 7.1875 C-44.61229677 5.86871673 -40.61644345 4.88240411 -36.5625 3.9375 C-35.53382813 3.68226563 -34.50515625 3.42703125 -33.4453125 3.1640625 C-22.235763 0.45437496 -11.50000179 -0.02083453 0 0 Z " fill="#FCFDFE" transform="translate(394.5625,231.8125)"/>
<path d="M0 0 C57.09 0 114.18 0 173 0 C173 13.2 173 26.4 173 40 C152.54 40 132.08 40 111 40 C111 98.41 111 156.82 111 217 C94.83 217 78.66 217 62 217 C62 158.59 62 100.18 62 40 C41.54 40 21.08 40 0 40 C0 26.8 0 13.6 0 0 Z " fill="#FCFDFE" transform="translate(117,237)"/>
<path d="M0 0 C0.66 0.33 1.32 0.66 2 1 C-0.97 3.97 -3.94 6.94 -7 10 C-7 5.69032084 -4.83274712 4.10253255 -2 1 C-1.34 0.67 -0.68 0.34 0 0 Z " fill="#5690CF" transform="translate(368,277)"/>
<path d="M0 0 C0.66 0.33 1.32 0.66 2 1 C0.71451591 2.33929505 -0.57858155 3.67128643 -1.875 5 C-2.59429687 5.7425 -3.31359375 6.485 -4.0546875 7.25 C-6 9 -6 9 -8 9 C-6.90101298 5.70303895 -6.05402613 4.95329411 -3.4375 2.8125 C-2.79683594 2.28269531 -2.15617187 1.75289063 -1.49609375 1.20703125 C-0.75552734 0.60955078 -0.75552734 0.60955078 0 0 Z " fill="#3C7DCD" transform="translate(485,481)"/>
</svg>
